<svg xmlns="http://www.w3.org/2000/svg" xmlns:xlink="http://www.w3.org/1999/xlink" width="48" zoomAndPan="magnify" viewBox="0 0 36 36.000001" height="48" preserveAspectRatio="xMidYMid meet" version="1.0"><defs><clipPath id="403edc01c9"><path d="M 4.058594 6.097656 L 31.554688 6.097656 L 31.554688 29.917969 L 4.058594 29.917969 Z M 4.058594 6.097656 " clip-rule="nonzero"/></clipPath><clipPath id="124e32b34d"><path d="M 5.625 6.097656 L 6.089844 6.097656 L 6.089844 6.539062 L 5.625 6.539062 Z M 5.625 6.097656 " clip-rule="nonzero"/></clipPath><clipPath id="63512da769"><path d="M 5.625 6.097656 L 6.089844 6.097656 L 6.089844 6.539062 L 5.625 6.539062 Z M 5.625 6.097656 " clip-rule="nonzero"/></clipPath><clipPath id="4d5b32852b"><path d="M 5.390625 0.933594 L 32.945312 0.933594 L 32.945312 33.859375 L 5.390625 33.859375 Z M 5.390625 0.933594 " clip-rule="nonzero"/></clipPath><clipPath id="58778594b5"><path d="M 12.878906 -3.269531 L 36.714844 2.480469 L 27.84375 39.253906 L 4.007812 33.503906 Z M 12.878906 -3.269531 " clip-rule="nonzero"/></clipPath><clipPath id="a12eab6b97"><path d="M 12.878906 -3.269531 L 36.714844 2.480469 L 27.84375 39.253906 L 4.007812 33.503906 Z M 12.878906 -3.269531 " clip-rule="nonzero"/></clipPath></defs><path fill="#e4dec9" d="M 25.453125 29.0625 C 25.453125 29.015625 25.566406 28.980469 25.734375 28.941406 C 25.730469 28.960938 25.730469 28.976562 25.730469 28.992188 C 25.664062 29.015625 25.570312 29.042969 25.453125 29.0625 Z M 25.453125 29.0625 " fill-opacity="1" fill-rule="nonzero"/><g clip-path="url(#403edc01c9)"><path fill="#e4dec9" d="M 4.433594 10.257812 C 4.089844 12.390625 4.507812 13.828125 4.757812 15.53125 C 4.839844 16.09375 4.90625 16.691406 4.917969 17.351562 C 4.921875 17.605469 4.910156 17.878906 4.902344 18.15625 C 4.894531 18.25 4.894531 18.332031 4.882812 18.429688 C 4.882812 18.582031 4.890625 18.730469 4.890625 18.867188 L 5.347656 18.453125 L 4.933594 20.597656 C 4.996094 22.53125 5.09375 24.230469 4.902344 26.335938 C 4.933594 26.355469 4.957031 26.367188 4.976562 26.410156 C 5.003906 26.457031 5.027344 26.496094 5.042969 26.542969 C 5.09375 26.644531 5.125 26.742188 5.164062 26.859375 C 5.226562 27.085938 5.28125 27.351562 5.3125 27.640625 C 5.375 28.171875 5.386719 28.808594 5.378906 29.535156 C 5.375 29.605469 5.375 29.683594 5.375 29.761719 C 5.496094 29.761719 5.628906 29.765625 5.753906 29.765625 C 6.351562 29.785156 6.972656 29.804688 7.628906 29.828125 C 8.328125 29.855469 9.042969 29.878906 9.738281 29.902344 C 10.785156 29.933594 11.777344 29.902344 12.503906 29.699219 C 14.085938 29.574219 14.941406 29.175781 13.738281 29.003906 C 13.992188 29.003906 14.203125 29.003906 14.390625 29.015625 C 15.679688 29.058594 15.613281 29.324219 16.765625 29.261719 C 16.890625 29.257812 17.027344 29.246094 17.183594 29.230469 L 16.785156 29.453125 L 16.570312 29.574219 C 16.648438 29.589844 16.730469 29.601562 16.8125 29.613281 C 16.851562 29.625 16.886719 29.628906 16.921875 29.632812 C 18.355469 29.292969 21.128906 28.882812 23.503906 29.21875 C 23.757812 29.261719 24.015625 29.292969 24.28125 29.320312 C 24.582031 29.320312 24.914062 29.335938 25.265625 29.375 C 24.210938 29.199219 24.953125 29.167969 25.449219 29.074219 C 25.449219 29.023438 25.558594 28.992188 25.730469 28.953125 C 25.722656 28.96875 25.722656 28.988281 25.722656 29.003906 C 25.65625 29.03125 25.558594 29.058594 25.449219 29.074219 C 25.730469 29.082031 27.882812 29.214844 28.148438 29.199219 C 28.335938 29.183594 28.527344 29.175781 28.714844 29.164062 C 28.914062 29.148438 29.113281 29.136719 29.304688 29.121094 C 30.070312 29.058594 30.695312 28.988281 31.316406 28.996094 C 31.339844 28.578125 31.394531 28.25 31.554688 27.984375 L 31.378906 27.132812 C 31.347656 26.960938 31.328125 26.804688 31.316406 26.648438 C 31.300781 26.496094 31.289062 26.351562 31.289062 26.226562 C 31.285156 25.972656 31.304688 25.726562 31.332031 25.476562 C 31.390625 24.988281 31.488281 24.507812 31.527344 23.992188 L 31.304688 23.847656 C 31.191406 23.171875 31.210938 21.921875 31.410156 21.328125 C 31.464844 20.511719 31.390625 19.601562 31.265625 18.667969 C 31.144531 17.832031 30.890625 16.226562 30.789062 15.457031 C 31.015625 13.617188 30.390625 14.421875 30.246094 12.765625 C 30.386719 11.714844 30.070312 9.878906 30.378906 9.242188 C 30.417969 10.710938 31.007812 10.910156 30.886719 12.457031 C 31.085938 11.863281 31.101562 15.0625 31.390625 13.683594 C 30.996094 11.355469 31.195312 8.617188 31.058594 6.101562 L 30.628906 6.101562 C 29.992188 6.140625 29.394531 6.1875 28.875 6.269531 C 28.917969 6.203125 28.898438 6.152344 28.820312 6.101562 L 21.453125 6.101562 L 19.964844 6.386719 L 16.765625 6.386719 L 16.5625 6.101562 L 7.550781 6.101562 C 7.253906 6.164062 6.425781 6.230469 5.957031 6.285156 C 5.957031 6.292969 5.953125 6.296875 5.953125 6.308594 C 5.992188 6.3125 6.019531 6.34375 6.046875 6.378906 C 5.914062 6.371094 5.789062 6.351562 5.660156 6.335938 C 5.117188 6.679688 4.574219 7.371094 4.0625 8.21875 C 4.140625 8.972656 4.261719 9.664062 4.433594 10.257812 Z M 28.648438 18.648438 C 28.644531 18.714844 28.648438 18.78125 28.648438 18.835938 C 28.644531 18.773438 28.644531 18.707031 28.636719 18.648438 C 28.648438 18.648438 28.648438 18.648438 28.648438 18.648438 Z M 28.648438 18.648438 " fill-opacity="1" fill-rule="nonzero"/></g><g clip-path="url(#124e32b34d)"><path fill="#e4dec9" d="M 5.953125 6.285156 C 5.953125 6.292969 5.949219 6.296875 5.949219 6.308594 C 5.984375 6.3125 6.015625 6.34375 6.042969 6.378906 C 5.910156 6.371094 5.78125 6.351562 5.65625 6.335938 C 5.710938 6.324219 5.816406 6.308594 5.953125 6.285156 Z M 5.953125 6.285156 " fill-opacity="1" fill-rule="nonzero"/></g><path fill="#e4dec9" d="M 28.644531 18.648438 C 28.648438 18.648438 28.648438 18.648438 28.65625 18.648438 C 28.648438 18.714844 28.65625 18.78125 28.65625 18.835938 C 28.648438 18.773438 28.648438 18.707031 28.644531 18.648438 Z M 28.644531 18.648438 " fill-opacity="1" fill-rule="nonzero"/><g clip-path="url(#63512da769)"><path fill="#e4dec9" d="M 5.953125 6.285156 C 5.953125 6.292969 5.949219 6.296875 5.949219 6.308594 C 5.984375 6.3125 6.015625 6.34375 6.042969 6.378906 C 5.910156 6.371094 5.78125 6.351562 5.65625 6.335938 C 5.765625 6.265625 5.882812 6.203125 5.992188 6.160156 C 5.980469 6.21875 5.96875 6.242188 5.953125 6.285156 Z M 5.953125 6.285156 " fill-opacity="1" fill-rule="nonzero"/></g><path fill="#e4dec9" d="M 25.453125 29.0625 C 25.453125 29.015625 25.566406 28.980469 25.734375 28.941406 C 25.730469 28.960938 25.730469 28.976562 25.730469 28.992188 C 25.664062 29.015625 25.570312 29.042969 25.453125 29.0625 Z M 25.453125 29.0625 " fill-opacity="1" fill-rule="nonzero"/><g clip-path="url(#4d5b32852b)"><g clip-path="url(#58778594b5)"><g clip-path="url(#a12eab6b97)"><path fill="#6e9346" d="M 31.207031 14.046875 C 29.585938 14.019531 28.375 14.945312 27.339844 15.695312 L 24.449219 17.496094 C 24.878906 17.21875 26.382812 16.1875 26.867188 14.996094 C 27.433594 13.605469 26.070312 12.59375 25.042969 14.375 C 24.015625 16.15625 24.046875 17.035156 24.332031 17.566406 L 21.007812 19.828125 C 21.367188 19.308594 22.453125 17.648438 22.351562 16.664062 C 22.234375 15.484375 21.058594 15.296875 20.613281 17.015625 C 20.183594 18.667969 20.136719 19.707031 20.808594 19.953125 L 18.882812 21.273438 C 19.191406 20.742188 19.535156 19.980469 19.488281 19.285156 C 19.40625 18.070312 19.550781 16.207031 18.84375 16.421875 C 17.929688 16.695312 17.664062 16.992188 17.429688 18.835938 C 17.234375 20.332031 17.859375 21.316406 18.210938 21.734375 L 15.429688 23.621094 C 15.773438 23.128906 16.394531 22.035156 16.1875 20.664062 C 15.925781 18.84375 14.820312 18.691406 14.609375 19.78125 C 14.539062 19.757812 14.472656 19.726562 14.394531 19.699219 C 13.546875 19.390625 12.933594 19.308594 12.476562 19.34375 C 12.710938 18.914062 12.945312 18.496094 13.175781 18.074219 C 14.199219 18.351562 16.703125 18.957031 16.792969 18.28125 C 16.898438 17.398438 16.683594 17.234375 15 17.195312 C 14.367188 17.179688 13.894531 17.285156 13.546875 17.421875 C 14.148438 16.363281 14.757812 15.339844 15.367188 14.378906 C 15.867188 14.8125 17.105469 15.667969 18.617188 15.203125 C 20.59375 14.582031 19.175781 13.921875 18.695312 13.804688 C 18.28125 13.707031 16.808594 13.160156 16.027344 13.367188 C 16.394531 12.820312 16.753906 12.300781 17.105469 11.816406 C 17.160156 11.738281 17.21875 11.664062 17.273438 11.585938 C 18.105469 11.96875 20.992188 13.1875 21.339844 11.9375 C 21.707031 10.597656 18.816406 10.429688 17.960938 10.648438 C 18.761719 9.53125 19.382812 8.605469 19.878906 7.839844 C 20.972656 8.21875 23.414062 8.972656 23.59375 8.222656 C 23.769531 7.492188 23.464844 7.441406 22 7.066406 C 21.359375 6.902344 20.769531 6.988281 20.320312 7.144531 C 20.816406 6.324219 21.132812 5.734375 21.328125 5.3125 C 21.480469 5.425781 21.6875 5.453125 21.867188 5.367188 L 24.042969 4.363281 C 27.613281 2.71875 27.355469 0.222656 24.765625 1.171875 C 23.1875 1.742188 21.941406 3.417969 21.203125 4.632812 C 21.128906 4.757812 21.109375 4.90625 21.144531 5.042969 C 20.820312 5.5 20.359375 6.160156 19.800781 6.964844 C 20.246094 6.21875 20.863281 4.980469 20.898438 3.855469 C 20.960938 2.097656 19.28125 1.480469 18.921875 3.847656 C 18.570312 6.183594 18.886719 7.152344 19.335938 7.640625 C 18.648438 8.640625 17.855469 9.804688 17.015625 11.054688 C 17.210938 10.125 17.503906 8.3125 17.128906 7.402344 C 16.601562 6.140625 15.394531 6.371094 15.574219 8.453125 C 15.730469 10.304688 16.015625 11.449219 16.644531 11.621094 C 16.183594 12.3125 15.710938 13.023438 15.238281 13.75 C 15.386719 13.089844 15.59375 11.746094 15.222656 10.789062 C 14.710938 9.460938 14.203125 7.332031 13.589844 7.835938 C 12.808594 8.480469 12.652344 8.910156 13.074219 11.050781 C 13.460938 13.019531 14.632812 13.859375 15.015625 14.089844 C 14.304688 15.183594 13.597656 16.277344 12.929688 17.339844 C 13.078125 16.605469 13.179688 15.304688 12.574219 14 C 11.648438 12.007812 10.472656 12.34375 10.761719 13.746094 C 11.019531 15.023438 11.625 17.964844 12.5 18.03125 C 12.128906 18.632812 11.777344 19.203125 11.445312 19.765625 C 11.402344 18.75 11.152344 16.277344 9.644531 16.667969 C 8 17.097656 9.941406 20.523438 11.035156 20.464844 C 10.585938 21.238281 10.191406 21.957031 9.875 22.589844 C 7 28.261719 5.582031 32.953125 5.582031 32.953125 L 5.460938 33.855469 C 5.460938 33.855469 6.28125 31.933594 7.582031 29.136719 L 13.375 25.371094 C 13.972656 25.894531 16.808594 28.335938 17.179688 27.886719 C 17.179688 27.886719 18.289062 27.585938 16.160156 26.011719 C 15.050781 25.191406 14.308594 25.03125 13.859375 25.058594 L 15.542969 23.957031 C 16.363281 24.472656 18.582031 25.804688 18.867188 25.273438 C 19.226562 24.605469 19.070312 24.398438 17.535156 23.847656 C 16.949219 23.640625 16.480469 23.578125 16.125 23.578125 L 18.554688 21.996094 C 18.839844 22.453125 19.742188 23.652344 21.367188 23.75 C 23.371094 23.863281 22.257812 22.90625 21.839844 22.660156 C 21.464844 22.441406 20.117188 21.4375 19.359375 21.480469 L 21.386719 20.167969 C 22.160156 20.816406 24.261719 22.460938 24.914062 21.609375 C 25.609375 20.703125 23.320312 19.734375 22.335938 19.550781 L 24.828125 17.925781 C 25.757812 18.589844 27.691406 19.867188 28.070312 19.328125 C 28.449219 18.800781 28.183594 18.675781 26.9375 17.914062 C 26.464844 17.625 25.972656 17.507812 25.542969 17.46875 L 27.09375 16.46875 C 27.144531 16.5 27.214844 16.519531 27.308594 16.511719 L 29.605469 16.386719 C 33.375 16.175781 33.867188 14.097656 31.207031 14.046875 Z M 11.988281 20.269531 C 12.621094 20.558594 13.617188 20.988281 14.453125 21.273438 C 14.375 22.449219 14.410156 23.773438 15.027344 23.902344 L 13.652344 24.839844 L 13.335938 25.03125 C 13.519531 24.519531 14.367188 21.910156 12.664062 21.734375 C 10.9375 21.558594 11.898438 25.273438 13 25.222656 L 8.046875 28.15625 C 9.148438 25.820312 10.515625 23.023438 11.988281 20.269531 Z M 11.988281 20.269531 " fill-opacity="1" fill-rule="nonzero"/></g></g></g></svg>