<?xml version="1.0" encoding="utf-8"?>
<svg viewBox="0 0 500 500" xmlns="http://www.w3.org/2000/svg">
  <path d="M 473.716 250 C 473.716 373.555 373.555 473.716 250 473.716 C 224.032 473.716 199.097 469.292 175.909 461.155 C 198.463 459.565 224.083 452.027 253.035 437.023 C 345.211 389.255 403.017 229.354 403.017 229.354 C 403.017 229.354 224.841 191.744 132.658 239.516 C 68.224 272.904 46.633 312.524 50.825 351.977 C 35.137 321.397 26.284 286.732 26.284 250 C 26.284 126.445 126.445 26.284 250 26.284 C 373.555 26.284 473.716 126.445 473.716 250 Z M 92.872 369.825 C 180.366 297.559 316.51 270.802 318.139 270.477 C 316.231 271.255 156.488 336.243 105.055 396.472 C 101.086 401.124 97.368 405.727 93.891 410.246 C 86.548 403.092 79.696 395.437 73.388 387.338 C 79.048 381.742 85.511 375.906 92.872 369.825 Z M 223.432 202.121 C 264.064 198.976 306.272 201.238 339.666 204.533 C 339.018 130.085 300.113 52.584 300.113 52.584 C 300.113 52.584 133.189 137.736 93.924 222.677 C 88.512 234.382 84.584 245.226 82.003 255.256 C 94.699 243.843 111.721 232.857 133.753 222.531 C 154.623 212.749 179.9 206.925 206.519 203.768 C 233.991 160.219 261.369 129.707 261.954 129.052 C 261.492 129.834 242.681 161.699 223.432 202.121 Z" style="stroke: rgb(0, 0, 0); paint-order: fill; stroke-width: 0px; fill: rgb(139, 189, 74);" transform="matrix(1, 0, 0, 1, 0, -2.842170943040401e-14)"/>
</svg>